<?xml version="1.0" encoding="UTF-8"?>
<svg version="1.1" viewBox="0 0 2048 2048" width="512" height="512" xmlns="http://www.w3.org/2000/svg">
<path transform="translate(759,1138)" d="m0 0h31l20 2 23 4 26 7 25 9 23 10 26 13 27 16 34 22 7 4 250 67 24 8 16 8 14 9 10 8 13 12 11 14 12 19 1 2 9-2 143-42 150-44 65-19 32-8 36-7 23-3 12-1h44l24 3 22 5 21 8 14 7 13 9 11 9 10 10 11 15 9 17 7 21 3 16 1 12v14l-2 21-5 22-6 18-12 25-11 17-10 13-11 12-11 11-17 13-15 9-21 10-44 17-127 49-109 42-55 21-41 16-208 80-24 9-34 12-33 10-28 7-26 5-32 4h-47l-26-4-27-7-251-73-37-10-19-3h-21l-19 3-19 6-20 9-35 17-25 12-16 8-6 2 5 13 13 32 3 11 1 8v15l-2 13-5 15-8 15-12 14-12 9-15 8-84 35-46 19-16 6-12 3-18 1-16-2-17-6-12-7-10-8-9-9-9-14-9-19-8-20-120-288-17-41-80-192-8-21-3-14v-21l4-18 8-17 10-13 8-8 13-9 14-7 118-49 23-9 11-3 7-1h19l16 3 12 5 11 6 9 7 5 4 11 14 7 12 12 29 3 6 19-9 27-13 28-13 41-20 23-11 33-16 60-29 26-12 33-14 31-11 28-8 25-5z" fill="#EDC6A3"/>
<path transform="translate(759,1138)" d="m0 0h31l20 2 23 4 26 7 25 9 23 10 26 13 27 16 34 22 7 4 250 67 24 8 16 8 14 9 10 8 13 12 11 14 12 19 1 2 9-2 143-42 150-44 65-19 32-8 36-7 23-3 12-1h44l24 3 22 5 21 8 14 7 13 9 11 9 10 10 11 15 9 17 7 21 3 16 1 12v14l-2 21-5 22-6 18-12 25-11 17-10 13-11 12-11 11-17 13-15 9-21 10-44 17-127 49-109 42-55 21-41 16-208 80-24 9-34 12-33 10-28 7-26 5-32 4h-47l-26-4-27-7-251-73-37-10-19-3h-21l-19 3-19 6-20 9-35 17-25 12-16 8-6 2 5 13 13 32 3 11 1 8v15l-2 13-5 15-8 15-12 14-12 9-15 8-84 35-46 19-16 6-12 3-18 1-16-2-17-6-12-7-10-8-9-9-9-14-9-19-8-20-120-288-17-41-80-192-8-21-3-14v-21l4-18 8-17 10-13 8-8 13-9 14-7 118-49 23-9 11-3 7-1h19l16 3 12 5 11 6 9 7 5 4 11 14 7 12 12 29 3 6 19-9 27-13 28-13 41-20 23-11 33-16 60-29 26-12 33-14 31-11 28-8 25-5zm-5 57-27 4-24 6-35 12-19 8-20 9-38 18-25 12-35 17-33 16-23 11-34 16-27 13-28 13-8 4 1 5 17 41 18 43 95 228 17 41 13 31 3 1 50-25 23-11 19-9 21-8 24-6 24-3h19l19 2 24 5 80 23 203 59 19 5 17 3 12 1h22l22-2 29-5 26-6 30-9 30-10 43-16 41-16 47-18 41-16 244-94 140-54 47-18 24-10 13-8 10-8 10-9 10-11 11-16 8-15 8-21 3-13 1-9v-19l-3-16-5-13-7-11-8-9-14-10-14-7-20-6-22-3h-38l-28 3-31 6-32 8-68 20-28 8-23 7-48 14-62 18-47 14-72 21-19 6v14l-2 19-4 20-6 18-8 16-9 14-11 13-13 13-17 12-16 9-21 8-22 5-10 1h-22l-22-3-46-12-172-46-93-25-44-12-8-4-5-5-4-6-2-7v-8l4-11 4-5 10-6 3-1h11l42 11 194 52 93 25 32 8 9 1h11l20-4 15-6 11-6 9-7 10-9 10-14 8-16 4-13 2-18-1-16-4-16-5-12-6-11-8-10-11-11-10-7-16-8-15-5-109-29-138-37-15-5-14-9-18-12-18-11-14-8-18-10-32-14-24-8-27-6-16-2z"/>
<path transform="translate(255,1272)" d="m0 0h14l10 4 9 9 9 19 15 36 12 29 15 36 17 41 40 96 17 41 80 192 18 43 15 37 2 7v12l-6 12-4 5-17 9-37 15-38 16-46 19-13 5-5 1h-10l-10-4-8-7-5-8-11-25-19-46-85-204-17-41-80-192-17-41-7-17-1-4v-13l4-10 7-8 8-5 48-20 34-14 43-18 15-6z" fill="#FBFCFC"/>
<path transform="translate(1415,36)" d="m0 0h20l18 3 16 6 14 8 13 10 9 9 10 14 8 15 5 15 3 19v14l-3 18-6 18-9 16-10 13-9 9-18 12-18 8-5 2v744l-1 66-5 10-8 7-7 3h-16l-8-4-7-7-4-9-1-11v-800l-10-3-16-8-13-9-16-16-9-14-7-14-5-17-2-16v-11l3-19 5-15 8-16 8-11 11-12 14-11 15-8 15-5 9-2z" fill="#030202"/>
<path transform="translate(933,50)" d="m0 0h21l17 3 17 6 14 8 10 8 10 9 10 13 8 14 6 17 3 14 1 15-2 18-4 16-6 14-10 16-14 15-15 11h-2l8 29 27 101 16 59 11 42 20 74 20 75 15 56 23 86 22 82 15 56 19 71 11 40 2 9v9l-4 10-7 8-8 4-4 1h-11l-10-4-7-7-5-11-17-63-27-101-48-179-20-75-25-93-27-101-25-93-13-49-6-21h-9l-20-4-15-6-13-7-9-7-10-9-10-12-8-14-6-15-4-16-1-8v-16l3-18 5-15 9-17 10-13 10-10 14-10 16-8 16-5z" fill="#010100"/>
<path transform="translate(1895,50)" d="m0 0h21l17 3 15 5 15 8 14 11 10 10 10 14 9 19 5 19 1 9v13l-2 17-5 16-8 17-8 11-9 10-10 9-13 8-13 6-17 5-20 3-2 6-20 75-22 82-20 75-13 48-27 101-22 82-19 71-44 164-19 71-5 10-7 7-10 4h-11l-9-3-8-7-5-10-1-10 5-22 15-55 50-187 66-246 12-44 11-42 11-40 11-42 11-40 11-42 5-18v-4l-13-9-15-15-10-15-7-15-4-13-2-11v-26l3-15 5-14 6-12 10-14 11-12 17-12 14-7 16-5z" fill="#010101"/>
<path transform="translate(760,1319)" d="m0 0 13 2 54 14 44 12 173 46 24 7 36 9 14 4 22 6 27 7 19 5 18 5 31 8 34 9 24 7 8 2 6 3 1-10 1-2 1-13 2-4-1 19-4 15-6 14-7 11-9 11-10 9-13 8-16 7-16 4-7 1h-11l-14-2-46-12-246-66-59-16-5-1h-11l-14 7-4 1-3 2-4-1-10-9-7-7-11-14-8-13-6-12-6-22-2-24 1-14 2-12z" fill="#D1A88C"/>
<path transform="translate(934,106)" d="m0 0h17l9 2 12 6 10 9 7 11 4 12 1 6v9l-3 12-6 12-4 5h-2v2l-11 8-9 4-8 2h-17l-14-5-11-8-9-11-5-11-2-8v-13l3-12 6-11 9-10 11-7z" fill="#5FD4F5"/>
<path transform="translate(1897,106)" d="m0 0h17l13 4 11 7 8 8 8 16 2 9v13l-3 12-6 10-9 10-11 7-13 4h-17l-13-4-10-7-8-8-6-10-4-12v-18l4-12 6-10 5-6 10-7 11-5z" fill="#5FD4F5"/>
<path transform="translate(1416,92)" d="m0 0h16l12 3 9 5 10 9 7 11 4 11 1 5v13l-4 13-6 10-7 8-10 7-12 4-6 1h-12l-12-3-11-6-5-4v-2h-2l-7-10-5-11-2-10v-8l4-16 6-10 7-8 11-7 9-4z" fill="#5FD4F5"/>
<path transform="translate(842,1436)" d="m0 0 8 1 35 9 75 20 6 2v1h-8l-67-18-44-12-5-1z" fill="#E3BB9B"/>
<path transform="translate(1010,1480)" d="m0 0 17 4 48 13 3 2h-8l-59-16z" fill="#E3BC9B"/>
<path transform="translate(1081,1499)" d="m0 0 16 4 30 8v1h-8l-37-10z" fill="#E2BA9A"/>
<path transform="translate(1048,1490)" d="m0 0 17 4 13 4v1h-8l-26-7z" fill="#E2BA9A"/>
<path transform="translate(935,1460)" d="m0 0 17 4 14 4v1h-8l-22-6z" fill="#E4BC9B"/>
<path transform="translate(980,1472)" d="m0 0 17 4 10 3v1h-8l-18-5z" fill="#E4BC9C"/>
<path transform="translate(842,1436)" d="m0 0 8 1 19 5v1h-7l-20-5z" fill="#E3BB9B"/>
<path transform="translate(869,1442)" d="m0 0 18 5v2l-11-2-11-3z" fill="#DFB798"/>
<path transform="translate(921,1456)" d="m0 0 12 3 2 1v2l-10-2-8-2z" fill="#E1B999"/>
<path transform="translate(950,1464)" d="m0 0 16 4v1h-8l-8-3z" fill="#E5BD9C"/>
</svg>
